<?xml version="1.0" encoding="UTF-8" standalone="no"?>
<svg
   width="400.918"
   height="124.126"
   viewBox="-75 -40 53.455733 16.550133"
   version="1.1"
   id="svg3"
   sodipodi:docname="logo.svg"
   inkscape:version="1.3 (0e150ed6c4, 2023-07-21)"
   xmlns:inkscape="http://www.inkscape.org/namespaces/inkscape"
   xmlns:sodipodi="http://sodipodi.sourceforge.net/DTD/sodipodi-0.dtd"
   xmlns="http://www.w3.org/2000/svg"
   xmlns:svg="http://www.w3.org/2000/svg"
   xmlns:rdf="http://www.w3.org/1999/02/22-rdf-syntax-ns#"
   xmlns:cc="http://creativecommons.org/ns#"
   xmlns:dc="http://purl.org/dc/elements/1.1/">
  <defs
     id="defs3" />
  <sodipodi:namedview
     id="namedview3"
     pagecolor="#ffffff"
     bordercolor="#000000"
     borderopacity="0.25"
     inkscape:showpageshadow="2"
     inkscape:pageopacity="0.0"
     inkscape:pagecheckerboard="true"
     inkscape:deskcolor="#d1d1d1"
     inkscape:zoom="2.8284271"
     inkscape:cx="219.55666"
     inkscape:cy="64.169941"
     inkscape:window-width="3840"
     inkscape:window-height="2054"
     inkscape:window-x="-11"
     inkscape:window-y="-11"
     inkscape:window-maximized="1"
     inkscape:current-layer="g1" />
  <title
     id="title1">Flag of Pakistan</title>
  <metadata
     id="metadata3">
    <rdf:RDF>
      <cc:Work
         rdf:about="">
        <dc:title>Flag of Pakistan</dc:title>
      </cc:Work>
    </rdf:RDF>
  </metadata>
  <g
     id="g1">
    <path
       style="font-weight:bold;font-size:7.11111px;font-family:'Century Gothic';-inkscape-font-specification:'Century Gothic Bold';fill:#01411c;stroke-width:0.0666667"
       d="m -56.999998,-33.516911 h 1.03125 q 0.836805,0 1.204861,0.15625 0.371527,0.152777 0.583333,0.499999 0.215278,0.34375 0.215278,0.826389 0,0.534722 -0.28125,0.888889 -0.277778,0.354167 -0.756945,0.493056 -0.28125,0.07986 -1.024305,0.07986 v 2.163194 h -0.972222 z m 0.972222,1.996527 h 0.309028 q 0.364583,0 0.506944,-0.05208 0.142361,-0.05208 0.222222,-0.170139 0.08333,-0.121528 0.08333,-0.291667 0,-0.295139 -0.229167,-0.430555 -0.166667,-0.100695 -0.618056,-0.100695 h -0.274305 z m 5.701388,-0.666666 h 0.944444 v 3.777777 h -0.944444 v -0.399306 q -0.277778,0.263889 -0.559028,0.381945 -0.277777,0.114583 -0.604166,0.114583 -0.732639,0 -1.267361,-0.565972 -0.534722,-0.569445 -0.534722,-1.413194 0,-0.875 0.517361,-1.434028 0.517361,-0.559028 1.256944,-0.559028 0.340278,0 0.638889,0.128473 0.298611,0.128472 0.552083,0.385416 z m -0.996528,0.777777 q -0.440972,0 -0.732638,0.3125 -0.291667,0.309028 -0.291667,0.795139 0,0.489583 0.295139,0.805555 0.298611,0.315973 0.732639,0.315973 0.447916,0 0.743055,-0.309028 0.295139,-0.3125 0.295139,-0.815972 0,-0.493056 -0.295139,-0.798611 -0.295139,-0.305556 -0.746528,-0.305556 z m 2.90625,-2.236111 h 0.947916 v 3.017361 l 1.395834,-1.559027 h 1.187499 l -1.624999,1.812499 1.822916,1.965278 h -1.177083 l -1.604167,-1.739583 v 1.739583 h -0.947916 z m 4.21875,0.128473 h 1.03125 q 0.836805,0 1.204861,0.15625 0.371527,0.152777 0.583333,0.499999 0.215278,0.34375 0.215278,0.826389 0,0.534722 -0.28125,0.888889 -0.277778,0.354167 -0.756945,0.493056 -0.28125,0.07986 -1.024305,0.07986 v 2.163194 h -0.972222 z m 0.972222,1.996527 h 0.309028 q 0.364583,0 0.506944,-0.05208 0.142361,-0.05208 0.222222,-0.170139 0.08333,-0.121528 0.08333,-0.291667 0,-0.295139 -0.229167,-0.430555 -0.166667,-0.100695 -0.618055,-0.100695 h -0.274306 z m 4.684026,-0.763889 q 0.534722,0 1.003472,0.267361 0.472222,0.267361 0.736111,0.725695 0.263889,0.458333 0.263889,0.989583 0,0.534722 -0.267361,1 -0.263889,0.465278 -0.722222,0.729166 -0.458333,0.260417 -1.010417,0.260417 -0.812499,0 -1.388888,-0.576389 -0.572917,-0.579861 -0.572917,-1.40625 0,-0.885416 0.649306,-1.475694 0.569444,-0.513889 1.309027,-0.513889 z m 0.01389,0.892361 q -0.440972,0 -0.736111,0.309028 -0.291667,0.305556 -0.291667,0.784722 0,0.493056 0.288195,0.798611 0.291667,0.305556 0.736111,0.305556 0.444444,0 0.739583,-0.309028 0.295139,-0.309028 0.295139,-0.795139 0,-0.486111 -0.291667,-0.788194 -0.288194,-0.305556 -0.739583,-0.305556 z m 2.663195,-2.253472 h 0.947917 v 5.236111 h -0.947917 z m 1.704861,0 h 0.947917 v 5.236111 h -0.947917 z"
       id="text4"
       aria-label="PakPoll" />
    <g
       id="g4"
       transform="matrix(1.0522341,0,0,1.0522341,4.4800742,2.7560304)">
      <path
         sodipodi:type="star"
         style="fill:#ffffff;fill-opacity:1;stroke:none;stroke-width:0.0666667"
         id="path3"
         inkscape:flatsided="true"
         sodipodi:sides="5"
         sodipodi:cx="151.97871"
         sodipodi:cy="264.24915"
         sodipodi:r1="18.315903"
         sodipodi:r2="14.817876"
         sodipodi:arg1="2.7994368"
         sodipodi:arg2="3.4277553"
         inkscape:rounded="0"
         inkscape:randomized="0"
         d="m 134.72452,270.39447 6.0778,-20.65603 21.5232,-0.60273 7.22426,20.28352 -17.05835,13.13864 z"
         transform="matrix(0.16673805,0.00464327,-0.00449481,0.16677578,-91.449764,-76.781454)"
         inkscape:transform-center-x="-0.00098872488"
         inkscape:transform-center-y="0.29165793" />
      <polygon
         points="-488533,-158734 488533,-158734 -301930,415571 0,-513674 301930,415571 "
         fill="#fff"
         transform="matrix(1.4860476e-6,-4.5800339e-6,4.5734584e-6,1.4881841e-6,-67.298931,-32.003171)"
         id="polygon3-8"
         style="fill:#01411c;fill-opacity:1" />
      <path
         sodipodi:type="star"
         style="fill:#e70a0a;fill-opacity:1;stroke:none;stroke-width:0.0666667"
         id="path4"
         inkscape:flatsided="true"
         sodipodi:sides="3"
         sodipodi:cx="276.65552"
         sodipodi:cy="264.28116"
         sodipodi:r1="21.219831"
         sodipodi:r2="10.609916"
         sodipodi:arg1="-1.5458015"
         sodipodi:arg2="-0.49860398"
         inkscape:rounded="0"
         inkscape:randomized="0"
         d="m 277.18585,243.06796 17.57568,32.27908 -36.74235,-0.91856 z"
         transform="matrix(0.09793479,-0.00433031,0.00244479,0.17346621,-95.034784,-80.963776)"
         inkscape:transform-center-x="3.479255e-05"
         inkscape:transform-center-y="-0.92046163" />
      <path
         sodipodi:type="star"
         style="fill:#228b22;fill-opacity:1;stroke:none;stroke-width:0.0666667"
         id="path4-6"
         inkscape:flatsided="true"
         sodipodi:sides="3"
         sodipodi:cx="276.65552"
         sodipodi:cy="264.28116"
         sodipodi:r1="21.219831"
         sodipodi:r2="10.609916"
         sodipodi:arg1="-1.5458015"
         sodipodi:arg2="-0.49860398"
         inkscape:rounded="0"
         inkscape:randomized="0"
         d="m 277.18585,243.06796 17.57568,32.27908 -36.74235,-0.91856 z"
         transform="matrix(0.03439425,0.09172978,-0.16422041,0.05586211,-29.312158,-73.476797)"
         inkscape:transform-center-x="-0.59723738"
         inkscape:transform-center-y="0.5681998" />
      <path
         sodipodi:type="star"
         style="fill:#ffcd00;fill-opacity:1;stroke:none;stroke-width:0.0666667"
         id="path4-6-1"
         inkscape:flatsided="true"
         sodipodi:sides="3"
         sodipodi:cx="276.65552"
         sodipodi:cy="264.28116"
         sodipodi:r1="21.219831"
         sodipodi:r2="10.609916"
         sodipodi:arg1="-1.5458015"
         sodipodi:arg2="-0.49860398"
         inkscape:rounded="0"
         inkscape:randomized="0"
         d="m 277.18585,243.06796 17.57568,32.27908 -36.74235,-0.91856 z"
         transform="matrix(-0.07661177,0.06105695,-0.10387493,-0.13892056,-16.109904,-8.6959813)"
         inkscape:transform-center-x="0.1868665"
         inkscape:transform-center-y="0.2158843" />
      <path
         sodipodi:type="star"
         style="fill:#808080;fill-opacity:1;stroke:none;stroke-width:0.0666667"
         id="path4-6-1-3"
         inkscape:flatsided="true"
         sodipodi:sides="3"
         sodipodi:cx="276.65552"
         sodipodi:cy="264.28116"
         sodipodi:r1="21.219831"
         sodipodi:r2="10.609916"
         sodipodi:arg1="-1.5458015"
         sodipodi:arg2="-0.49860398"
         inkscape:rounded="0"
         inkscape:randomized="0"
         d="m 277.18585,243.06796 17.57568,32.27908 -36.74235,-0.91856 z"
         transform="matrix(0.07661177,0.06105695,0.10387493,-0.13892056,-118.4771,-8.6955163)"
         inkscape:transform-center-x="-0.18686677"
         inkscape:transform-center-y="0.2158843" />
      <path
         sodipodi:type="star"
         style="fill:#000000;fill-opacity:1;stroke:none;stroke-width:0.0666667"
         id="path4-6-9"
         inkscape:flatsided="true"
         sodipodi:sides="3"
         sodipodi:cx="276.65552"
         sodipodi:cy="264.28116"
         sodipodi:r1="21.219831"
         sodipodi:r2="10.609916"
         sodipodi:arg1="-1.5458015"
         sodipodi:arg2="-0.49860398"
         inkscape:rounded="0"
         inkscape:randomized="0"
         d="m 277.18585,243.06796 17.57568,32.27908 -36.74235,-0.91856 z"
         transform="matrix(-0.03439425,0.09172978,0.16422041,0.05586211,-105.28414,-73.481603)"
         inkscape:transform-center-x="0.59723686"
         inkscape:transform-center-y="0.5681998" />
    </g>
    <path
       style="font-style:italic;font-size:3.2px;font-family:'Century Gothic';-inkscape-font-specification:'Century Gothic Italic';fill:#01411c;stroke-width:0.0666667"
       d="m -55.623434,-27.678215 0.770312,2.298437 h -0.235937 l -0.251563,-0.751562 h -0.973437 l -0.429688,0.751562 h -0.25625 l 1.323438,-2.298437 z m -0.07344,0.48125 -0.490625,0.846875 h 0.775 z m 2.404688,-0.48125 h 0.626562 q 0.310938,0 0.445313,0.05781 0.135937,0.05781 0.217187,0.185938 0.08125,0.126562 0.08125,0.3 0,0.226562 -0.128125,0.395312 -0.128125,0.167188 -0.323437,0.228125 -0.142188,0.04531 -0.501563,0.04531 h -0.348437 l -0.146875,1.085937 h -0.229688 z m 0.203125,0.221875 -0.10625,0.764062 h 0.320312 q 0.323438,0 0.446875,-0.04375 0.125,-0.04531 0.2,-0.153125 0.07656,-0.109375 0.07656,-0.242187 0,-0.109375 -0.05156,-0.185938 -0.05156,-0.07656 -0.142187,-0.107812 -0.09063,-0.03125 -0.332813,-0.03125 z m 2.775,-0.279688 q 0.464062,0 0.771875,0.304688 0.309375,0.304687 0.309375,0.770312 0,0.567188 -0.392188,0.953125 -0.390625,0.385938 -0.975,0.385938 -0.496875,0 -0.795312,-0.296875 -0.298438,-0.296875 -0.298438,-0.776563 0,-0.370312 0.178125,-0.679687 0.179688,-0.309375 0.495313,-0.484375 0.317187,-0.176563 0.70625,-0.176563 z m -0.0047,0.217188 q -0.329687,0 -0.589062,0.14375 -0.257813,0.14375 -0.409375,0.407812 -0.15,0.264063 -0.15,0.5625 0,0.253125 0.109375,0.454688 0.109375,0.2 0.301562,0.30625 0.19375,0.10625 0.454688,0.10625 0.309375,0 0.573437,-0.148438 0.264063,-0.15 0.414063,-0.414062 0.151562,-0.265625 0.151562,-0.573438 0,-0.407812 -0.285937,-0.646875 -0.2375,-0.198437 -0.570313,-0.198437 z m 1.676563,-0.159375 h 0.23125 l -0.276563,2.082812 h 0.99375 l -0.02656,0.215625 h -1.225 z m 1.478125,0 h 0.23125 l -0.276563,2.082812 h 0.99375 l -0.02656,0.215625 h -1.225 z m 1.465624,0 h 0.23125 l -0.310937,2.298437 h -0.23125 z m 2.328126,0 h 0.225 l -0.310937,2.298437 h -0.05 l -1.29375,-1.78125 -0.240625,1.78125 h -0.228125 l 0.309375,-2.298437 h 0.05 l 1.296875,1.784375 z m 2.885938,0.49375 -0.184375,0.135937 q -0.173438,-0.226562 -0.407813,-0.346875 -0.232812,-0.121875 -0.478125,-0.121875 -0.275,0 -0.528125,0.148438 -0.253125,0.146875 -0.398437,0.392187 -0.14375,0.24375 -0.14375,0.523438 0,0.379687 0.270312,0.646875 0.271875,0.265625 0.660938,0.265625 0.232812,0 0.446875,-0.09531 0.214062,-0.09531 0.346875,-0.253125 0.132812,-0.157812 0.19375,-0.390625 h -0.842188 v -0.226562 h 1.11875 q -0.03437,0.528125 -0.379687,0.85625 -0.34375,0.328125 -0.857813,0.328125 -0.528125,0 -0.857812,-0.320313 -0.329688,-0.320312 -0.329688,-0.804687 0,-0.345313 0.173438,-0.64375 0.173437,-0.3 0.476562,-0.471875 0.304688,-0.173438 0.65625,-0.173438 0.635938,0 1.064063,0.551563 z m 2.629686,-0.06875 -0.217187,0.05469 q -0.04375,-0.145312 -0.14375,-0.229687 -0.1,-0.08438 -0.215625,-0.08438 -0.128125,0 -0.209375,0.0875 -0.07969,0.08594 -0.07969,0.23125 0,0.128125 0.08594,0.267187 0.05313,0.0875 0.25625,0.271875 0.210937,0.190625 0.29375,0.35625 0.08438,0.164063 0.08438,0.321875 0,0.167188 -0.09219,0.321875 -0.09063,0.154688 -0.245312,0.24375 -0.154688,0.08906 -0.328125,0.08906 -0.220313,0 -0.382813,-0.140625 -0.160937,-0.140625 -0.23125,-0.4125 l 0.2125,-0.07187 q 0.05,0.20625 0.1625,0.30625 0.1125,0.1 0.259375,0.1 0.167188,0 0.2875,-0.123438 0.120313,-0.123437 0.120313,-0.304687 0,-0.132813 -0.06875,-0.259375 -0.06719,-0.126563 -0.265625,-0.304688 -0.2125,-0.19375 -0.276563,-0.296875 -0.104687,-0.171875 -0.104687,-0.3625 0,-0.235937 0.153125,-0.389062 0.154687,-0.154688 0.382812,-0.154688 0.192188,0 0.342188,0.121875 0.15,0.121875 0.220312,0.360938 z m 0.517188,-0.425 h 0.23125 l -0.310938,2.298437 h -0.23125 z m 2.917188,0 v 2.298437 h -0.215625 v -1.584375 l -0.996875,1.584375 h -0.05781 l -0.595312,-1.640625 -0.471875,1.640625 h -0.232813 l 0.664063,-2.298437 h 0.0375 l 0.671875,1.867187 1.160937,-1.867187 z m 0.739062,0 h 0.226562 l -0.173437,1.315625 q -0.03438,0.2625 -0.03438,0.373437 0,0.215625 0.123437,0.332813 0.123438,0.115625 0.348438,0.115625 0.157812,0 0.279687,-0.05313 0.121875,-0.05312 0.20625,-0.154688 0.08594,-0.101562 0.121875,-0.234375 0.0625,-0.23125 0.107813,-0.584375 l 0.14375,-1.110937 h 0.226562 l -0.153125,1.160937 -0.0375,0.284375 q -0.03281,0.198438 -0.07813,0.339063 -0.04531,0.139062 -0.11875,0.246875 -0.07344,0.107812 -0.167187,0.176562 -0.09375,0.06875 -0.228125,0.107813 -0.132813,0.04062 -0.298438,0.04062 -0.339062,0 -0.523437,-0.171875 -0.184375,-0.171875 -0.184375,-0.45625 0,-0.07969 0.0094,-0.178125 l 0.03437,-0.26875 z m 2.115626,0 h 0.23125 l -0.276562,2.082812 h 0.99375 l -0.02656,0.215625 h -1.225 z m 2.425,0 0.770312,2.298437 h -0.235937 l -0.251563,-0.751562 h -0.973437 l -0.429688,0.751562 h -0.25625 l 1.323438,-2.298437 z m -0.07344,0.48125 -0.490625,0.846875 h 0.775 z m 1.223438,-0.48125 h 1.373437 l -0.02969,0.21875 h -0.585938 l -0.276562,2.079687 h -0.229688 l 0.276563,-2.079687 h -0.557813 z m 2.742186,-0.05781 q 0.464063,0 0.771876,0.304688 0.309375,0.304687 0.309375,0.770312 0,0.567188 -0.392188,0.953125 -0.390625,0.385938 -0.975,0.385938 -0.496875,0 -0.795313,-0.296875 -0.298437,-0.296875 -0.298437,-0.776563 0,-0.370312 0.178125,-0.679687 0.179687,-0.309375 0.495312,-0.484375 0.317188,-0.176563 0.70625,-0.176563 z m -0.0047,0.217188 q -0.329688,0 -0.589063,0.14375 -0.257812,0.14375 -0.409375,0.407812 -0.15,0.264063 -0.15,0.5625 0,0.253125 0.109375,0.454688 0.109375,0.2 0.301563,0.30625 0.19375,0.10625 0.454687,0.10625 0.309375,0 0.573438,-0.148438 0.264062,-0.15 0.414063,-0.414062 0.151562,-0.265625 0.151562,-0.573438 0,-0.407812 -0.285938,-0.646875 -0.2375,-0.198437 -0.570312,-0.198437 z m 1.726564,-0.159375 h 0.576563 q 0.307812,0 0.440625,0.05937 0.132812,0.05781 0.215625,0.1875 0.08281,0.128125 0.08281,0.298437 0,0.185938 -0.09844,0.345313 -0.09688,0.159375 -0.265625,0.240625 -0.16875,0.07969 -0.44375,0.07969 l 0.69375,1.0875 h -0.260938 l -0.692187,-1.0875 h -0.18125 l -0.148438,1.0875 h -0.23125 z m 0.201563,0.220312 -0.103125,0.765625 h 0.264062 q 0.29375,0 0.384375,-0.02344 0.151563,-0.0375 0.24375,-0.146875 0.09375,-0.110938 0.09375,-0.270313 0,-0.179687 -0.129687,-0.260937 -0.1,-0.06406 -0.359375,-0.06406 z"
       id="text5"
       aria-label="A POLLING SIMULATOR" />
  </g>
</svg>
